<?xml version="1.0" encoding="UTF-8"?>
<!DOCTYPE svg PUBLIC "-//W3C//DTD SVG 1.1//EN" "http://www.w3.org/Graphics/SVG/1.1/DTD/svg11.dtd">
<!-- Creator: CorelDRAW -->
<svg xmlns="http://www.w3.org/2000/svg" xml:space="preserve" width="297mm" height="210mm" style="shape-rendering:geometricPrecision; text-rendering:geometricPrecision; image-rendering:optimizeQuality; fill-rule:evenodd; clip-rule:evenodd"
viewBox="0 0 297 210"
 xmlns:xlink="http://www.w3.org/1999/xlink">
 <defs>
  <style type="text/css">
   <![CDATA[
    .fil2 {fill:#1F1A17}
    .fil0 {fill:#25B1EF}
    .fil1 {fill:#1F1A17;fill-rule:nonzero}
   ]]>
  </style>
 </defs>
<symbol id="Fm16-33-0" viewBox="422.125 -232.286 6.9191 6.9186">
 <polygon class="fil0" points="429.044,-232.286 422.125,-232.286 429.044,-225.367 "/>
</symbol>
 <g id="图层_x0020_1">
  <metadata id="CorelCorpID_0Corel-Layer"/>
  <g id="_191783288">
   <path id="_191764160" class="fil1" d="M116.594 134.202l-2.958 0c-0.277,0.3296 -0.601,0.6183 -0.9713,0.872 -0.3706,0.2511 -0.7731,0.4465 -1.2076,0.5893 -0.4349,0.1429 -0.887,0.2158 -1.3565,0.2188 -0.6243,-0.003 -1.2106,-0.1225 -1.753,-0.3529 -0.5457,-0.2335 -1.0238,-0.5544 -1.438,-0.9656 -0.4116,-0.4112 -0.7352,-0.8897 -0.9686,-1.4351 -0.2334,-0.5453 -0.353,-1.1317 -0.356,-1.762 0.003,-0.6269 0.1226,-1.2103 0.356,-1.753 0.2334,-0.5454 0.557,-1.0239 0.9686,-1.4381 0.4142,-0.4111 0.8923,-0.7351 1.438,-0.9685 0.5424,-0.2335 1.1287,-0.353 1.753,-0.356 0.4695,0.003 0.9216,0.0733 1.3595,0.2131 0.4375,0.1402 0.8427,0.3327 1.2133,0.5834 0.3706,0.248 0.6912,0.5367 0.9626,0.8663l2.958 0c-0.2774,-0.6153 -0.636,-1.1783 -1.0765,-1.6917 -0.4375,-0.5104 -0.9423,-0.954 -1.5079,-1.3272 -0.5661,-0.3762 -1.1787,-0.6653 -1.838,-0.8694 -0.6592,-0.2071 -1.3505,-0.3093 -2.071,-0.3119 -0.7818,0.0026 -1.5226,0.1225 -2.2258,0.3616 -0.7029,0.239 -1.3475,0.5746 -1.9368,1.0061 -0.5864,0.4349 -1.0938,0.9423 -1.5257,1.5317 -0.4314,0.5863 -0.7671,1.2309 -1.0031,1.9338 -0.2394,0.7032 -0.359,1.444 -0.362,2.2198 0.003,0.7848 0.1226,1.5286 0.362,2.2345 0.236,0.7089 0.5717,1.3565 1.0031,1.9458 0.4319,0.592 0.9393,1.1024 1.5257,1.5369 0.5893,0.4349 1.2339,0.7702 1.9368,1.0096 0.7032,0.236 1.444,0.3585 2.2258,0.3616 0.7236,-0.0031 1.4178,-0.1049 2.0797,-0.3094 0.6622,-0.2041 1.2779,-0.4957 1.8436,-0.872 0.566,-0.3762 1.0678,-0.8254 1.5023,-1.3448 0.4375,-0.5191 0.7934,-1.0938 1.0678,-1.7267zm3.8255 -0.9276c-0.0026,-0.2831 0.006,-0.5601 0.0293,-0.8314 0.0203,-0.2744 0.0673,-0.5338 0.1428,-0.7788 0.076,-0.2451 0.1929,-0.4668 0.353,-0.6653 0.1605,-0.1954 0.3792,-0.3616 0.6536,-0.4897 0.274,-0.1316 0.6243,-0.2188 1.0441,-0.2628l0 -2.4679c-0.2946,0.0177 -0.5919,0.076 -0.8896,0.1722 -0.3003,0.0962 -0.5864,0.2247 -0.8634,0.3852 -0.277,0.1575 -0.5251,0.3413 -0.7498,0.5454l0 -0.84 -2.2225 0 0 10.2561 2.5025 0 0 -5.023zm11.3344 5.023l2.5029 0 0 -10.2561 -2.5029 0 0 0.6649c-0.3529,-0.3064 -0.7701,-0.5368 -1.2516,-0.6943 -0.4811,-0.1544 -1.0031,-0.2334 -1.5662,-0.2334 -0.595,0.003 -1.158,0.0936 -1.6947,0.2714 -0.5368,0.1782 -1.0269,0.4319 -1.4734,0.7555 -0.4492,0.3266 -0.8371,0.7119 -1.1667,1.158 -0.3266,0.4465 -0.5833,0.9367 -0.7641,1.4704 -0.1808,0.5367 -0.2714,1.1024 -0.2744,1.7004 0.003,0.5953 0.0936,1.161 0.2744,1.7037 0.1808,0.5424 0.4375,1.0412 0.7641,1.4963 0.3296,0.4552 0.7175,0.8517 1.1667,1.19 0.4465,0.3387 0.9366,0.601 1.4734,0.7878 0.5367,0.1865 1.0997,0.28 1.6947,0.283 0.3732,-0.003 0.7322,-0.0496 1.0735,-0.1458 0.3413,-0.0936 0.6592,-0.2217 0.9509,-0.3852 0.2947,-0.1632 0.56,-0.347 0.7934,-0.5541l0 0.7875zm-2.9054 -7.9284c0.3909,0.003 0.7615,0.0759 1.1028,0.2217 0.3439,0.1429 0.6472,0.3443 0.907,0.6037 0.2627,0.2567 0.4698,0.5544 0.6156,0.8956 0.1485,0.3383 0.2244,0.7059 0.2274,1.0968 -0.003,0.3909 -0.0789,0.7615 -0.2274,1.1054 -0.1458,0.3443 -0.3529,0.6506 -0.6156,0.9133 -0.2598,0.2654 -0.5631,0.4725 -0.907,0.6213 -0.3413,0.1515 -0.7119,0.2274 -1.1028,0.2304 -0.3909,-0.003 -0.7584,-0.0789 -1.0997,-0.2304 -0.3413,-0.1488 -0.6416,-0.3559 -0.9013,-0.6213 -0.2598,-0.2627 -0.4639,-0.569 -0.6097,-0.9133 -0.1488,-0.3439 -0.2217,-0.7145 -0.2248,-1.1054 0.0031,-0.3909 0.076,-0.7585 0.2248,-1.0968 0.1458,-0.3412 0.3499,-0.6389 0.6097,-0.8956 0.2597,-0.2594 0.56,-0.4608 0.9013,-0.6037 0.3413,-0.1458 0.7088,-0.2187 1.0997,-0.2217zm12.314 5.7758c-0.4142,-0.003 -0.8021,-0.0819 -1.1607,-0.2394 -0.3619,-0.1545 -0.6799,-0.3706 -0.9539,-0.6476 -0.2714,-0.274 -0.4871,-0.592 -0.642,-0.9509 -0.1545,-0.3616 -0.233,-0.7469 -0.236,-1.1551 0.003,-0.4142 0.0815,-0.7994 0.236,-1.155 0.1549,-0.3529 0.3706,-0.6653 0.642,-0.9336 0.274,-0.2654 0.592,-0.4755 0.9539,-0.6243 0.3586,-0.1485 0.7465,-0.2244 1.1607,-0.2274 0.4931,0 0.9423,0.0962 1.3418,0.283 0.4025,0.1894 0.7382,0.4695 1.0035,0.837l2.7653 0c-0.1865,-0.5104 -0.4492,-0.9802 -0.7875,-1.4117 -0.3352,-0.4318 -0.7322,-0.8051 -1.1843,-1.1261 -0.4522,-0.3206 -0.9449,-0.5686 -1.476,-0.7468 -0.5337,-0.1748 -1.0881,-0.2654 -1.6628,-0.2684 -0.6006,0.003 -1.1723,0.0936 -1.7121,0.2714 -0.5427,0.1782 -1.0385,0.4319 -1.4906,0.7585 -0.4522,0.3266 -0.8431,0.7119 -1.1757,1.158 -0.3297,0.4462 -0.589,0.9393 -0.7698,1.476 -0.1811,0.5398 -0.2744,1.1084 -0.2774,1.7094 0.003,0.601 0.0963,1.1727 0.2774,1.7151 0.1808,0.5427 0.4401,1.0415 0.7698,1.4937 0.3326,0.4521 0.7235,0.8456 1.1757,1.1813 0.4521,0.3326 0.9479,0.592 1.4906,0.7731 0.5398,0.1835 1.1115,0.277 1.7121,0.28 0.598,-0.003 1.17,-0.1022 1.7154,-0.2946 0.5454,-0.1925 1.0472,-0.4608 1.5049,-0.8081 0.4582,-0.3473 0.8548,-0.7525 1.1904,-1.2163 0.3353,-0.4638 0.592,-0.9686 0.7701,-1.514l-2.678 0c-0.1894,0.2973 -0.4112,0.5484 -0.6709,0.7555 -0.2623,0.2041 -0.5454,0.3616 -0.8573,0.4668 -0.3093,0.1079 -0.6333,0.1605 -0.9746,0.1605zm6.6091 2.1526l2.5025 0 0 -4.148 3.3782 4.148 3.2027 0 -4.113 -5.2155 3.6579 -5.0406 -2.8878 0 -3.238 4.2705 0 -7.4909 -2.5025 0 0 13.4765zm10.494 0l2.5901 0 0 -8.8034 5.9506 8.8034 2.398 0 0 -13.8614 -2.5904 0 0 8.8207 -6.0206 -8.8207 -2.3277 0 0 13.8614zm12.7868 -4.7257c-0.003,0.2627 0.0056,0.5574 0.0233,0.881 0.0203,0.3266 0.0669,0.6653 0.1372,1.0182 0.0729,0.3499 0.1894,0.6972 0.3469,1.0355 0.1575,0.3413 0.3732,0.6562 0.6476,0.9449 0.277,0.2917 0.6273,0.5367 1.0502,0.7412 0.3266,0.1575 0.6795,0.2654 1.0588,0.3266 0.3792,0.0613 0.7641,0.0669 1.161,0.0203 0.3939,-0.0466 0.7788,-0.1488 1.152,-0.3089 0.3736,-0.1635 0.7205,-0.3853 1.0385,-0.6683l0 0.7352 2.2405 0 0 -10.2561 -2.5205 0 0 4.7956c0.003,0.2593 0.006,0.5367 0.003,0.8254 0,0.2886 -0.0203,0.5746 -0.0643,0.8547 -0.0436,0.28 -0.1251,0.5397 -0.2477,0.7757 -0.1225,0.2365 -0.3063,0.4319 -0.5483,0.5894 -0.2071,0.1165 -0.4233,0.1954 -0.6506,0.2364 -0.2248,0.038 -0.4466,0.0436 -0.6593,0.0117 -0.2158,-0.0324 -0.4086,-0.0963 -0.5803,-0.1955 -0.3037,-0.1838 -0.5311,-0.4086 -0.6856,-0.6769 -0.1575,-0.2684 -0.2627,-0.5514 -0.318,-0.8487 -0.0526,-0.2977 -0.0819,-0.5864 -0.0846,-0.8634 -0.003,-0.28 0,-0.5224 0.0027,-0.7265l0 -4.7779 -2.5025 0 0 5.5304zm11.2465 -5.5304l-1.1201 0 0 2.3976 1.1201 0 0 7.8585 2.5029 0 0 -7.8585 1.4 0 0 -2.3976 -1.4 0 0 -3.2204 -2.5029 0 0 3.2204zm9.7066 0.0349c-0.3206,-0.1488 -0.6649,-0.242 -1.0381,-0.283 -0.3736,-0.038 -0.7439,-0.0147 -1.1145,0.0729 -0.3676,0.0906 -0.7058,0.2511 -1.0152,0.4901 -0.2623,0.2041 -0.4754,0.4259 -0.6446,0.6709 -0.1691,0.2421 -0.2976,0.4932 -0.3909,0.7525 -0.0905,0.2597 -0.1518,0.5134 -0.1838,0.7645 -0.0293,0.2507 -0.0379,0.4841 -0.0233,0.6999 0.041,0.4232 0.1372,0.7878 0.2887,1.0941 0.1549,0.3063 0.3736,0.5773 0.6593,0.8107 0.286,0.2334 0.6476,0.4492 1.0824,0.6506 0.1575,0.073 0.3383,0.1489 0.5394,0.2274 0.2015,0.079 0.4025,0.1722 0.598,0.2744 0.1954,0.1019 0.3646,0.2244 0.5078,0.3676 0.1398,0.1428 0.2274,0.315 0.2623,0.5131 0.0233,0.1082 0.0233,0.2161 -0.003,0.3296 -0.0233,0.1139 -0.0669,0.2187 -0.1281,0.321 -0.0643,0.1022 -0.1429,0.1868 -0.2365,0.2597 -0.0992,0.0846 -0.204,0.1428 -0.3089,0.1691 -0.1053,0.0263 -0.2045,0.035 -0.2977,0.0233 -0.0962,-0.0086 -0.1808,-0.0263 -0.2507,-0.0526 -0.2131,-0.0755 -0.3736,-0.1778 -0.4785,-0.3063 -0.1078,-0.1282 -0.1808,-0.277 -0.2217,-0.4492 -0.038,-0.1721 -0.0613,-0.3646 -0.0699,-0.5747l-2.398 0c0,0.4496 0.0496,0.8664 0.1458,1.2517 0.0992,0.3848 0.2481,0.7321 0.4495,1.0411 0.2654,0.3529 0.5627,0.6333 0.8897,0.8404 0.3266,0.2071 0.6619,0.3556 1.0092,0.4401 0.3469,0.0876 0.6826,0.1286 1.0062,0.1199 0.3443,-0.009 0.6825,-0.0672 1.0095,-0.1695 0.3267,-0.1048 0.6386,-0.2683 0.9333,-0.4897 0.2977,-0.2218 0.5717,-0.5164 0.8227,-0.881 0.1981,-0.3064 0.3413,-0.639 0.4285,-0.9889 0.0906,-0.3529 0.1286,-0.7002 0.1169,-1.0442 -0.0146,-0.3442 -0.0729,-0.6592 -0.1781,-0.9422 -0.1135,-0.2947 -0.2421,-0.5454 -0.3819,-0.7499 -0.1372,-0.2041 -0.2947,-0.3762 -0.4668,-0.519 -0.1752,-0.1459 -0.3706,-0.2744 -0.5894,-0.3879 -0.2157,-0.1139 -0.4608,-0.2304 -0.7322,-0.3443 -0.271,-0.1169 -0.5746,-0.2481 -0.9099,-0.3969 -0.2274,-0.0932 -0.4056,-0.2041 -0.5367,-0.3267 -0.1282,-0.1225 -0.2071,-0.2713 -0.2335,-0.4431 -0.0233,-0.1402 -0.0146,-0.2684 0.0294,-0.3822 0.0436,-0.1139 0.1078,-0.2132 0.198,-0.3004 0.0906,-0.0875 0.1985,-0.1462 0.318,-0.1721 0.1226,-0.0293 0.2394,-0.0293 0.3473,-0.003 0.1489,0.0436 0.2714,0.1109 0.3646,0.2011 0.0932,0.0936 0.1661,0.1984 0.2218,0.3123 0.0526,0.1165 0.0962,0.2304 0.1311,0.3443l2.2755 0c-0.038,-0.321 -0.0936,-0.6213 -0.1635,-0.9043 -0.0729,-0.283 -0.1752,-0.5428 -0.3063,-0.7818 -0.1312,-0.2421 -0.3034,-0.4582 -0.5191,-0.6506 -0.2161,-0.1925 -0.4871,-0.3586 -0.8141,-0.4988z"/>
   <g>
    <path id="_191763152" class="fil1" d="M130.802 91.8627c0.0828,-0.7789 0.7813,-1.3431 1.5602,-1.2603 0.7788,0.0828 1.343,0.7813 1.2603,1.5601 -0.005,0.0464 -1.8961,15.9995 14.2437,22.7912 2.8176,-1.1009 16.7199,-7.3326 15.0611,-22.5947 -0.0828,-0.7788 0.4815,-1.4773 1.2603,-1.5601 0.7788,-0.0828 1.4774,0.4814 1.5602,1.2602 2.0126,18.5164 -16.0241,25.2484 -17.3721,25.7252 -0.3303,0.137 -0.7124,0.1499 -1.0704,0.0064 -18.6914,-7.4766 -16.5088,-25.8751 -16.5033,-25.928z"/>
    <path id="_191761064" class="fil1" d="M152.071 80.2512l22.5373 16.8689c0.6491,-1.6967 0.7024,-3.4821 0.3013,-5.1826 -0.5811,-2.463 -2.1064,-4.7526 -4.1621,-6.3702l-7.4616 -5.872c-1.7368,-1.3667 -3.9697,-1.8325 -6.1644,-1.5569 -1.8181,0.2283 -3.5988,0.9618 -5.0505,2.1128zm22.2015 20.1541l-25.1675 -18.8373c-0.0634,-0.0407 -0.1243,-0.0872 -0.1822,-0.1393 -0.5826,-0.5243 -0.6298,-1.4218 -0.1056,-2.0043 2.0573,-2.283 4.9731,-3.7316 7.96,-4.1065 2.903,-0.3645 5.8915,0.2793 8.2632,2.1457l7.4616 5.872c2.5469,2.0041 4.4423,4.8642 5.1722,7.958 0.6762,2.8659 0.3605,5.9301 -1.3421,8.7175l-0.0016 -0.0011c-0.0233,0.0382 -0.0487,0.0757 -0.0761,0.1121 -0.469,0.6254 -1.3565,0.7522 -1.9819,0.2832z"/>
    <path id="_191770664" class="fil1" d="M168.608 77.0916c-0.5671,-0.5395 -0.5894,-1.437 -0.0499,-2.0041 0.5395,-0.567 1.437,-0.5894 2.0041,-0.0499 0.0098,0.0092 3.4756,3.2225 -1.2699,7.8166 -0.561,0.5456 -1.4585,0.5331 -2.0041,-0.0279 -0.5456,-0.561 -0.5331,-1.4585 0.0279,-2.0041 2.6067,-2.5236 1.2955,-3.7272 1.2919,-3.7306z"/>
    <path id="_191778560" class="fil2" d="M129.981 81.001l4.668 -2.7318 2.8381 -1.6609 -1.8715 -5.2033 -7.7366 4.5275 0.7587 2.1071 1.1138 3.0957 0.2295 -0.1343zm7.9933 10.4428l5.1469 -3.012 -1.4341 -3.9839 -5.1469 3.012 1.4341 3.9839zm1.3632 -8.2342l6.4505 -3.7749 -1.7969 -4.9935 -6.4506 3.7749 1.797 4.9935z"/>
   </g>
  </g>
 </g>
</svg>
